<svg width="32" height="32" viewBox="0 0 32 32" fill="none" xmlns="http://www.w3.org/2000/svg">
<path d="M26.2451 10.33H22.0551V18.605H26.2451C26.5103 18.605 26.7647 18.4996 26.9522 18.3121C27.1398 18.1246 27.2451 17.8702 27.2451 17.605V11.33C27.2451 11.0648 27.1398 10.8104 26.9522 10.6229C26.7647 10.4354 26.5103 10.33 26.2451 10.33Z" stroke="#E71919" stroke-width="2"/>
<path d="M22.0547 18.605V10.33C22.0547 10.33 19.8697 10.38 16.2347 10.33C12.5997 10.28 8.34469 7.98 5.57969 5.63C5.50737 5.56814 5.41891 5.5282 5.32469 5.51487C5.23046 5.50155 5.13439 5.51538 5.04776 5.55476C4.96113 5.59414 4.88753 5.65742 4.83562 5.73718C4.7837 5.81693 4.75563 5.90984 4.75468 6.005V22.95C4.75491 23.0433 4.78123 23.1347 4.83066 23.2138C4.8801 23.2929 4.95068 23.3566 5.03443 23.3977C5.11818 23.4388 5.21175 23.4556 5.30457 23.4463C5.3974 23.437 5.48576 23.4019 5.55968 23.345C7.33968 21.945 11.7697 18.815 16.0597 18.685C18.5697 18.605 20.5997 18.605 22.0547 18.605Z" stroke="#E71919" stroke-width="2"/>
<path d="M20.3549 26.5H22.7549C23.0201 26.5 23.2745 26.3946 23.462 26.2071C23.6495 26.0196 23.7549 25.7652 23.7549 25.5L24.2549 18.61H19.8549L19.3549 25.5C19.3549 25.7652 19.4602 26.0196 19.6478 26.2071C19.8353 26.3946 20.0897 26.5 20.3549 26.5Z" stroke="#E71919" stroke-width="2"/>
</svg>
